<?xml version="1.0" standalone="no"?>
<svg xmlns:xlink="http://www.w3.org/1999/xlink" id="wave" style="transform:rotate(0deg); transition: 0.3s" viewBox="0 0 1440 490" version="1.1" xmlns="http://www.w3.org/2000/svg"><defs><linearGradient id="sw-gradient-0" x1="0" x2="0" y1="1" y2="0"><stop stop-color="rgba(81.482, 84.561, 48.487, 1)" offset="0%"/><stop stop-color="rgba(200.677, 138.171, 0, 1)" offset="100%"/></linearGradient></defs><path style="transform:translate(0, 0px); opacity:1" fill="url(#sw-gradient-0)" d="M0,392L18.5,326.7C36.9,261,74,131,111,81.7C147.7,33,185,65,222,65.3C258.5,65,295,33,332,49C369.2,65,406,131,443,187.8C480,245,517,294,554,261.3C590.8,229,628,114,665,122.5C701.5,131,738,261,775,302.2C812.3,343,849,294,886,294C923.1,294,960,343,997,326.7C1033.8,310,1071,229,1108,171.5C1144.6,114,1182,82,1218,57.2C1255.4,33,1292,16,1329,49C1366.2,82,1403,163,1440,220.5C1476.9,278,1514,310,1551,343C1587.7,376,1625,408,1662,416.5C1698.5,425,1735,408,1772,383.8C1809.2,359,1846,327,1883,310.3C1920,294,1957,294,1994,302.2C2030.8,310,2068,327,2105,343C2141.5,359,2178,376,2215,343C2252.3,310,2289,229,2326,163.3C2363.1,98,2400,49,2437,73.5C2473.8,98,2511,196,2548,196C2584.6,196,2622,98,2640,49L2658.5,0L2658.5,490L2640,490C2621.5,490,2585,490,2548,490C2510.8,490,2474,490,2437,490C2400,490,2363,490,2326,490C2289.2,490,2252,490,2215,490C2178.5,490,2142,490,2105,490C2067.7,490,2031,490,1994,490C1956.9,490,1920,490,1883,490C1846.2,490,1809,490,1772,490C1735.4,490,1698,490,1662,490C1624.6,490,1588,490,1551,490C1513.8,490,1477,490,1440,490C1403.1,490,1366,490,1329,490C1292.3,490,1255,490,1218,490C1181.5,490,1145,490,1108,490C1070.8,490,1034,490,997,490C960,490,923,490,886,490C849.2,490,812,490,775,490C738.5,490,702,490,665,490C627.7,490,591,490,554,490C516.9,490,480,490,443,490C406.2,490,369,490,332,490C295.4,490,258,490,222,490C184.6,490,148,490,111,490C73.8,490,37,490,18,490L0,490Z"/><defs><linearGradient id="sw-gradient-1" x1="0" x2="0" y1="1" y2="0"><stop stop-color="rgba(194, 208, 44, 1)" offset="0%"/><stop stop-color="rgba(205.231, 162.803, 69.014, 1)" offset="100%"/></linearGradient></defs><path style="transform:translate(0, 50px); opacity:0.9" fill="url(#sw-gradient-1)" d="M0,343L18.5,285.8C36.9,229,74,114,111,65.3C147.7,16,185,33,222,81.7C258.5,131,295,212,332,220.5C369.2,229,406,163,443,171.5C480,180,517,261,554,261.3C590.8,261,628,180,665,163.3C701.5,147,738,196,775,204.2C812.3,212,849,180,886,138.8C923.1,98,960,49,997,81.7C1033.8,114,1071,229,1108,269.5C1144.6,310,1182,278,1218,228.7C1255.4,180,1292,114,1329,106.2C1366.2,98,1403,147,1440,155.2C1476.9,163,1514,131,1551,98C1587.7,65,1625,33,1662,73.5C1698.5,114,1735,229,1772,302.2C1809.2,376,1846,408,1883,416.5C1920,425,1957,408,1994,400.2C2030.8,392,2068,392,2105,326.7C2141.5,261,2178,131,2215,130.7C2252.3,131,2289,261,2326,261.3C2363.1,261,2400,131,2437,138.8C2473.8,147,2511,294,2548,359.3C2584.6,425,2622,408,2640,400.2L2658.5,392L2658.5,490L2640,490C2621.5,490,2585,490,2548,490C2510.8,490,2474,490,2437,490C2400,490,2363,490,2326,490C2289.2,490,2252,490,2215,490C2178.5,490,2142,490,2105,490C2067.7,490,2031,490,1994,490C1956.9,490,1920,490,1883,490C1846.2,490,1809,490,1772,490C1735.4,490,1698,490,1662,490C1624.6,490,1588,490,1551,490C1513.8,490,1477,490,1440,490C1403.1,490,1366,490,1329,490C1292.3,490,1255,490,1218,490C1181.5,490,1145,490,1108,490C1070.8,490,1034,490,997,490C960,490,923,490,886,490C849.2,490,812,490,775,490C738.5,490,702,490,665,490C627.7,490,591,490,554,490C516.9,490,480,490,443,490C406.2,490,369,490,332,490C295.4,490,258,490,222,490C184.6,490,148,490,111,490C73.8,490,37,490,18,490L0,490Z"/></svg>